# xmcd
#
# Track frame offsets:
#	150
#	25552
#	53461
#	70320
#	83150
#	95471
#	124563
#	142937
#	159785
#	182175
#	205281
#	219793
#	246386
#	263330
#	275212
#	295661
#	307884
#	327393
#
# Disc length: 4628 seconds
#
# Revision: 0
# Processed by: cddbd v1.5.2PL0 Copyright (c) Steve Scherf et al.
# Submitted via: dBpowerAMP V4.0
#
DISCID=f2121212
DTITLE=Various Artist - Magic Time
DYEAR=1900
DGENRE=Pop - Rock
TTITLE0=Stranded - Van Morrison
TTITLE1=Celtic New Year - 
TTITLE2=Keep Mediocrity at Bay - 
TTITLE3=Evening Train - 
TTITLE4=This Love of Mine - 
TTITLE5=Just Like Greta - 
TTITLE6=Gypsy in My Soul - 
TTITLE7=Lonely and Blue - 
TTITLE8=This Lion This Time - 
TTITLE9=Magic Time - 
TTITLE10=They Sold MeOut - 
TTITLE11=Carry on Regardless - 
TTITLE12=Bright Side Of The Road - 
TTITLE13=Gloria - 
TTITLE14=Moondance - 
TTITLE15=Baby Please Don't Go - 
TTITLE16=Have I Told You Lately - Van Morrison
TTITLE17=Sweet Thing - 
EXTD=Van Morrison-Magic Time
EXTT0=
EXTT1=
EXTT2=
EXTT3=
EXTT4=
EXTT5=
EXTT6=
EXTT7=
EXTT8=
EXTT9=
EXTT10=
EXTT11=
EXTT12=
EXTT13=
EXTT14=
EXTT15=
EXTT16=
EXTT17=
PLAYORDER=
